# xmcd
#
# Track frame offsets: 
#        150
#        22941
#        45862
#        68248
#        92975
#        120294
#        144201
#        165363
#        186485
#        210736
#        234179
#        254939
#        275545
#        298006
#        318824
#        339289
#
# Disc length: 4768 seconds
#
# Revision: 0
# Processed by: cddbd v1.5.2PL0 Copyright (c) Steve Scherf et al.
# Submitted via: ExactAudioCopy v1.0b3
#
DISCID=dc129e10
DTITLE=Various Artist - 50 Techno Trance Anthems Vol. 2 - CD 1
DYEAR=1900
DGENRE=
TTITLE0=DJ Cor Fijneman Feat. Jan Johnston - Venus (Tiesto Mix)
TTITLE1=ATFC Feat. Lisa Millett - Bad Habit (Armin Van Buuren Rising S
TTITLE1=tar Mix)
TTITLE2=Kuffdam and Plant - Summerdream (Paul Van Dyk Rmx)
TTITLE3=Woody Van Eyden - Time Now (ATB Mix)
TTITLE4=Yakooza - French Kiss (Scot Project Mix)
TTITLE5=DJ Wag - The Day The Earth Caught Fire (Pro-Active Mix)
TTITLE6=Duderstadt - Muhanjala (Sean Tyas Rmx)
TTITLE7=Kaltflut - Under Water (Xtd Mix)
TTITLE8=Oversea - Ocean Flight (Etasonic´s Over The Ocean Rmx)
TTITLE9=Hypetraxx - The Darkside (Original Mix)
TTITLE10=Talla 2XLC - The Eternal Mystery (Doug Laurent Re-Edit)
TTITLE11=Kai Tracid - So Simple (Remastered)
TTITLE12=R.F.N. - Once Again (Ramon´s Dorian Gray Mix)
TTITLE13=Heaven's DJ - Illumination (H.DJ Mix)
TTITLE14=Kara Sun - Energy Of Life (Matthew Kramer Vs. Kara Sun Mix)
TTITLE15=Armas C. Lowell - In Joy And Sorrow (Xtd)
EXTD=
EXTT0=
EXTT1=
EXTT2=
EXTT3=
EXTT4=
EXTT5=
EXTT6=
EXTT7=
EXTT8=
EXTT9=
EXTT10=
EXTT11=
EXTT12=
EXTT13=
EXTT14=
EXTT15=
PLAYORDER=
